<?xml version="1.0" encoding="UTF-8"?>
<!DOCTYPE svg PUBLIC "-//W3C//DTD SVG 1.1//EN" "http://www.w3.org/Graphics/SVG/1.1/DTD/svg11.dtd">
<svg version="1.1" xmlns="http://www.w3.org/2000/svg" xmlns:xlink="http://www.w3.org/1999/xlink" x="0" y="0" width="1024" height="1024" viewBox="0, 0, 1024, 1024">
  <defs>
    <linearGradient id="Gradient_1" gradientUnits="userSpaceOnUse" x1="-512.326" y1="940.36" x2="-512.326" y2="82.988" gradientTransform="matrix(-0.001, -1, 1, -0.001, 0, 0)">
      <stop offset="0.019" stop-color="#F2595C"/>
      <stop offset="1" stop-color="#F73769"/>
    </linearGradient>
    <linearGradient id="Gradient_2" gradientUnits="userSpaceOnUse" x1="-512.326" y1="940.36" x2="-512.326" y2="82.988" gradientTransform="matrix(-0.001, -1, 1, -0.001, 0, 0)">
      <stop offset="0.019" stop-color="#F2595C"/>
      <stop offset="1" stop-color="#F73769"/>
    </linearGradient>
    <linearGradient id="Gradient_3" gradientUnits="userSpaceOnUse" x1="-512.326" y1="940.36" x2="-512.326" y2="82.988" gradientTransform="matrix(-0.001, -1, 1, -0.001, 0, 0)">
      <stop offset="0.019" stop-color="#F2595C"/>
      <stop offset="1" stop-color="#F73769"/>
    </linearGradient>
  </defs>
  <g id="Layer_1">
    <path d="M940.849,767.727 L512.326,1024 L83.477,768.273 L83.151,256.273 L511.674,0 L940.523,255.727 z" fill="#FFFFFF"/>
    <path d="M511.674,0 L940.523,255.727 L940.575,338.159 C916.877,325.403 889.782,322.034 863.249,321.631 C804.221,318.37 745.058,322.815 685.991,321.364 C676.901,321.141 667.825,320.655 658.749,320.131 C661.749,344.131 662.749,365.631 662.749,392.131 L662.749,665.631 C662.749,700.631 661.749,717.631 658.749,739.131 C680.249,738.131 694.749,737.631 732.749,737.631 L868.749,737.631 C893.337,737.757 917.944,734.108 940.822,724.929 L940.849,767.727 L512.326,1024 L83.477,768.273 L83.151,256.273 L511.674,0 z M247.749,320.131 C250.749,344.131 251.749,362.631 251.749,393.631 L251.749,662.631 C251.749,699.631 250.749,714.631 247.749,737.631 L355.249,737.631 C352.249,714.631 351.249,696.131 351.249,662.131 L351.249,580.131 L402.249,580.131 C418.249,580.131 430.749,584.131 441.249,593.631 C453.749,604.631 459.749,616.131 475.749,659.631 C491.249,701.131 497.249,721.631 500.249,737.631 L617.249,737.631 C604.749,711.131 598.749,698.631 593.249,684.631 C570.749,630.631 563.749,613.631 556.249,597.631 C540.249,562.131 528.749,550.631 503.249,542.631 C527.749,534.631 538.249,529.131 550.749,517.631 C570.249,499.131 580.249,471.131 580.249,435.631 C580.249,363.631 533.249,321.631 452.249,321.631 L322.249,321.631 C288.249,321.631 269.749,321.131 247.749,320.131 z M429.749,405.631 C460.749,405.631 476.749,420.131 476.749,448.131 C476.749,476.631 458.749,494.631 429.249,494.631 L351.249,494.631 L351.249,405.631 L429.749,405.631 z" fill="url(#Gradient_1)"/>
    <path d="M852.249,562.131 C884.249,562.131 903.249,579.131 903.249,608.131 C903.249,637.631 884.249,655.131 852.749,655.131 L760.749,655.131 L760.749,562.131 L852.249,562.131 z" fill="url(#Gradient_2)"/>
    <path d="M847.749,403.631 C876.249,403.631 891.749,417.631 891.749,442.131 C891.749,466.631 875.249,482.131 848.749,482.131 L760.749,482.131 L760.749,403.631 L847.749,403.631 z" fill="url(#Gradient_3)"/>
  </g>
</svg>
