<?xml version="1.0" encoding="UTF-8"?>
<!DOCTYPE svg PUBLIC "-//W3C//DTD SVG 1.1//EN" "http://www.w3.org/Graphics/SVG/1.1/DTD/svg11.dtd">
<svg version="1.1" xmlns="http://www.w3.org/2000/svg" xmlns:xlink="http://www.w3.org/1999/xlink" x="0" y="0" width="400" height="50" viewBox="0, 0, 400, 50">
  <defs>
    <linearGradient id="Gradient_1" gradientUnits="userSpaceOnUse" x1="-25.012" y1="39.07" x2="-25.012" y2="-0.008" gradientTransform="matrix(-0.001, -1, 1, -0.001, 0, 0)">
      <stop offset="0.019" stop-color="#FFE24F"/>
      <stop offset="1" stop-color="#FFA423"/>
    </linearGradient>
    <linearGradient id="Gradient_2" gradientUnits="userSpaceOnUse" x1="-29.74" y1="37.361" x2="-29.74" y2="30.865" gradientTransform="matrix(-0.001, -1, 1, -0.001, 0, 0)">
      <stop offset="0.019" stop-color="#FFE24F"/>
      <stop offset="1" stop-color="#FFA423"/>
    </linearGradient>
    <linearGradient id="Gradient_3" gradientUnits="userSpaceOnUse" x1="-21.646" y1="36.842" x2="-21.646" y2="30.87" gradientTransform="matrix(-0.001, -1, 1, -0.001, 0, 0)">
      <stop offset="0.019" stop-color="#FFE24F"/>
      <stop offset="1" stop-color="#FFA423"/>
    </linearGradient>
  </defs>
  <g id="Layer_1">
    <path d="M39.094,37.488 L19.563,50.001 L0.016,37.513 L0,12.512 L19.531,-0.001 L39.078,12.487 z" fill="#FFFFFF"/>
    <path d="M19.531,-0.001 L39.078,12.487 L39.081,16.512 C38.001,15.889 36.766,15.725 35.556,15.705 C32.866,15.546 30.169,15.762 27.477,15.691 C27.063,15.681 26.649,15.657 26.235,15.631 C26.372,16.803 26.418,17.853 26.418,19.147 L26.418,32.502 C26.419,34.211 26.373,35.041 26.236,36.091 C27.216,36.043 27.877,36.018 29.609,36.018 L35.808,36.018 C36.929,36.025 38.05,35.847 39.093,35.398 L39.094,37.488 L19.563,50.001 L0.016,37.513 L0,12.512 L19.531,-0.001 z M7.502,15.63 C7.639,16.802 7.685,17.706 7.685,19.219 L7.685,32.355 C7.685,34.162 7.64,34.894 7.503,36.017 L12.403,36.017 C12.266,34.894 12.221,33.991 12.221,32.331 L12.22,28.327 L14.545,28.327 C15.274,28.327 15.844,28.522 16.323,28.986 C16.892,29.523 17.166,30.085 17.895,32.209 C18.602,34.235 18.875,35.236 19.012,36.018 L24.345,36.018 C23.775,34.724 23.501,34.114 23.251,33.43 C22.225,30.793 21.906,29.963 21.564,29.182 C20.835,27.448 20.311,26.886 19.148,26.496 C20.265,26.105 20.744,25.837 21.313,25.275 C22.202,24.372 22.658,23.004 22.658,21.271 C22.658,17.755 20.515,15.704 16.823,15.704 L10.898,15.704 C9.348,15.704 8.505,15.679 7.502,15.63 z M15.798,19.806 C17.211,19.806 17.94,20.514 17.94,21.881 C17.94,23.273 17.12,24.152 15.775,24.152 L12.22,24.152 L12.22,19.806 L15.798,19.806 z" fill="url(#Gradient_1)"/>
    <path d="M35.055,27.449 C36.514,27.449 37.38,28.279 37.38,29.695 C37.38,31.135 36.514,31.99 35.078,31.99 L30.885,31.99 L30.885,27.448 L35.055,27.449 z" fill="url(#Gradient_2)"/>
    <path d="M34.85,19.709 C36.149,19.709 36.856,20.393 36.856,21.589 C36.856,22.785 36.104,23.542 34.896,23.542 L30.885,23.542 L30.885,19.709 L34.85,19.709 z" fill="url(#Gradient_3)"/>
    <text transform="matrix(1, 0, 0, 1, 219.842, 25)">
      <tspan x="-173.04" y="7" font-family="HiraKakuStd-W8" font-size="21" fill="#000000">React + Firebase Boilerplate</tspan>
    </text>
  </g>
</svg>
